# xmcd CD database file
#
# Track frame offsets:
#	150
#	14283
#	30530
#	46135
#	62247
#	77749
#	91027
#	108889
#	126445
#	140232
#	163039
#
# Disc length: 2385 seconds
#
# Revision: 0
# Processed by: cddbd v1.5.1PL0 Copyright (c) Steve Scherf et al.
# Submitted via: CDex 1.50
#
DISCID=8b094f0b
DTITLE=Pavel Brümer - Nejhur jak se zda
DYEAR=1999
DGENRE=Country
TTITLE0=Ranni ticho
TTITLE1=Hrac
TTITLE2=Chrestysi jed
TTITLE3=Prave ja
TTITLE4=Chvile kdy jsem byl s ni
TTITLE5=Neni nejhur jak se zda
TTITLE6=Chlapi nereznou
TTITLE7=Jako silnej strom
TTITLE8=Prastrejcek Jan
TTITLE9=Nedelni rano
TTITLE10=Kdyz odchazi klaun
EXTD=YEAR: 1999
EXTT0=
EXTT1=
EXTT2=
EXTT3=
EXTT4=
EXTT5=
EXTT6=
EXTT7=
EXTT8=
EXTT9=
EXTT10=
PLAYORDER=
